Coordinates
nRows=124
nColumns=2
inDegrees=yes
endheader
time	ankle_angle_r	
2.57661	 -0.427246	
2.64819	 -0.405908	
2.71976	 -0.425922	
2.79133	 -0.396839	
2.8629	 -0.385731	
2.93448	 -0.429574	
3.00605	 -0.431773	
3.07762	 -0.388753	
3.14919	 -0.385913	
3.22077	 -0.445068	
3.29234	 -0.444181	
3.36391	 -0.374827	
3.43548	 -0.369419	
3.50706	 -0.406719	
3.57863	 -0.391312	
3.6502	 -0.364502	
3.72177	 -0.372727	
3.79335	 -0.372042	
3.86492	 -0.382734	
3.93649	 -0.389744	
4.00806	 -0.378519	
4.07964	 -0.391498	
4.15121	 -0.375482	
4.22278	 -0.350979	
4.29435	 -0.375242	
4.36593	 -0.399592	
4.4375	 -0.391110	
4.50907	 -0.394646	
4.58065	 -0.434884	
4.65222	 -0.437665	
4.72379	 -0.404673	
4.79536	 -0.404529	
4.86694	 -0.426706	
4.93851	 -0.412249	
5.01008	 -0.382800	
5.08165	 -0.437170	
5.15323	 -0.466846	
5.2248	 -0.385738	
5.29637	 -0.349028	
5.36794	 -0.355175	
5.43952	 -0.315065	
5.51109	 -0.282996	
5.58266	 -0.300458	
5.65423	 -0.324603	
5.72581	 -0.311829	
5.79738	 -0.295294	
5.86895	 -0.322554	
5.94052	 -0.358245	
6.0121	 -0.351224	
6.08367	 -0.322658	
6.15524	 -0.337618	
6.22681	 -0.367577	
6.29839	 -0.332960	
6.36996	 -0.331353	
6.44153	 -0.388052	
6.5131	 -0.362970	
6.58468	 -0.325683	
6.65625	 -0.334513	
6.72782	 -0.337336	
6.7994	 -0.342551	
6.87097	 -0.311310	
6.94254	 -0.303743	
7.01411	 -0.355890	
7.08569	 -0.365224	
7.15726	 -0.335940	
7.22883	 -0.346827	
7.3004	 -0.380867	
7.37198	 -0.350165	
7.44355	 -0.326075	
7.51512	 -0.350542	
7.58669	 -0.336347	
7.65827	 -0.331559	
7.72984	 -0.365330	
7.80141	 -0.388175	
7.87298	 -0.382622	
7.94456	 -0.363310	
8.01613	 -0.371405	
8.0877	 -0.412618	
8.15927	 -0.414823	
8.23085	 -0.358418	
8.30242	 -0.368969	
8.37399	 -0.429748	
8.44556	 -0.417473	
8.51714	 -0.383727	
8.58871	 -0.399983	
8.66028	 -0.424115	
8.73185	 -0.404649	
8.80343	 -0.394034	
8.875	 -0.418994	
8.94657	 -0.415039	
9.01815	 -0.382590	
9.08972	 -0.373114	
9.16129	 -0.408068	
9.23286	 -0.436125	
9.30444	 -0.400824	
9.37601	 -0.342205	
9.44758	 -0.341905	
9.51915	 -0.366240	
9.59073	 -0.343230	
9.6623	 -0.354452	
9.73387	 -0.409331	
9.80544	 -0.399146	
9.87702	 -0.365043	
9.94859	 -0.397038	
10.0202	 -0.435319	
10.0917	 -0.404746	
10.1633	 -0.377810	
10.2349	 -0.398650	
10.3065	 -0.419892	
10.378	 -0.413126	
10.4496	 -0.400689	
10.5212	 -0.434222	
10.5927	 -0.458724	
10.6643	 -0.429653	
10.7359	 -0.405788	
10.8075	 -0.412493	
10.879	 -0.418579	
10.9506	 -0.389808	
11.0222	 -0.382629	
11.0937	 -0.424107	
11.1653	 -0.438267	
11.2369	 -0.400814	
11.3085	 -0.379990	
11.38	 -0.439799	
